<?xml version="1.0" encoding="UTF-8" standalone="no"?>
<svg
	xmlns:svg="http://www.w3.org/2000/svg"
	xmlns="http://www.w3.org/2000/svg"
	width="903"
	height="368">
	<style type="text/css" id="style">
			path{fill:none;stroke:none}
			.s{stroke-width:2}
			.s2{stroke-width:10}
			.bgblack{fill:#000}
			.bggreen{fill:#69e503}
			.bgorange{fill:#fea429}
			.bgred{fill:#fa6230}
			.bgwhite{fill:#fff}
			.bgyellow{fill:#ffff01}
			.bdblack{stroke:#000}
			.bdyellow{stroke:#ffff01}
	</style>
	<g
		id="janpu">
		<path
			class="bgblack"
			d="M 819,29 794.75,54 647,54 647,158 789,158 789,212 762,241 692,241 692,164 582,164 582,223 564,241 489,241 500,216 459,171 368,171 358,131 300,131 325,105 325,54 166.6875,54 157.2,66 157.2,54 13,54 13,139 20,144 13,149 13,236 107,236 158,184 158,142 113,142 157,96 157,137 169,137 169,219 147.59375,242 13,242 13,368 206,368 279,293 279,271 293,271 311,368 407,368 396,316 466,316 466,368 618,368 681,300 681,368 814,368 892.5,291.6 894.6,96.7 903,88 903,29 819,29 z M 467,54 467,154 576,154 629,101 629,54 467,54 z "
			id="janpublack" />
		<path
			class="bdblack s2"
			d="M 811,5 786.75,30 639,30 639,134 781,134 781,188 754,217 684,217 684,140 574,140 574,199 556,217 481,217 492,192 451,147 360,147 350,107 292,107 317,81 317,30 158.7,30 149.2,42 149.2,30 5,30 5,115 12,120 5,125 5,212 99,212 150,160 150,118 105,118 149,72 149,113 161,113 161,195 139.6,218 5,218 5,344 198,344 271,269 271,247 285,247 303,344 399,344 388,292 458,292 458,344 610,344 673,276 673,344 806,344 884.5,267.6 886.5625,72.7 895,64 895,5 811,5 z M 459,30 459,130 568,130 621,77 621,30 459,30 z "
			id="janpuborder" />
		<path
			class="bgorange bdblack s"
			d="M 5,30 5,115 12,120 5,125 5,212 99,212 150,160 150,118 105,118 149,72 149,113 161,113 161,195 139.6,218 5,218 5,344 198,344 271,269 271,247 285,247 303,344 399,344 388,292 458,292 458,344 610,344 673,276 673,344 806,344 884.5,267.6 887,30 639,30 639,134 781,134 781,188 754,217 684,217 684,140 574,140 574,199 556,217 481,217 492,192 451,147 360,147 350,107 292,107 317,81 317,30 158.7,30 149.2,42 149.2,30 5,30 z M 459,30 459,130 568,130 621,77 621,30 459,30 z "
			id="janpuorange" />
		<path
			class="bgblack"
			d="M 15,41 15,118 95,118 135,78 46,78 56,66 144,66 144,41 z M 160,41 160,105 237,105 237,78 166,78 176,66 237,66 237,41 z M 248,41 248,105 280,105 306,78 254,78 264,66 308,66 308,41 z M 467,41 467,123 565,123 610,78 478,78 488,66 614,66 614,41 z M 649,41 649,126 793,126 793,197 763,228 684,228 684,270 766,270 816,219 816,77 656,77 668,65 827,65 827,225 769,283 684,283 684,336 802,336 877,265 877,41 z M 171,116 171,206 148,229 15,229 15,337 193,337 261,267 261,149 205,149 205,225 159,271 25,271 34,262 153,262 193,220 193,138 261,138 261,116 z M 269,116 278.2,161 269,161 269,202 286.5,202 289,214 269,214 269,239 294,239 314,337 342,337 297,116 z M 303,116 348,337 384,337 363.4,236 383,236 393,209 357.9,209 355.7,198 423,198 416,209 403,209 376,285 440,285 475,198 440,157 347.3,157 339,116 z M 15,127 15,204 95,204 141,158 49,158 60,146 144,146 144,127 z M 585,153 585,206 562,229 469,229 469,337 605,337 674,265 674,179 631,179 631,217 578,271 479,271 488,262 572,262 621,212 621,168 674,168 674,153 z "
			id="janpushadow" />
		<path
			class="bgyellow bdblack s"
			d="M 13,37 13,114 93,114 133,74 44,74 54,62 142,62 142,37 z M 158,37 158,101 235,101 235,74 164,74 174,62 235,62 235,37 z M 246,37 246,101 278,101 304,74 252,74 262,62 306,62 306,37 z M 465,37 465,119 563,119 608,74 476,74 486,62 612,62 612,37 z M 647,37 647,122 791,122 791,193 761,224 682,224 682,266 764,266 814,215 814,73 654,73 666,61 825,61 825,221 767,279 682,279 682,332 800,332 875,261 875,37 z M 169,112 169,202 146,225 13,225 13,333 191,333 259,263 259,145 203,145 203,221 157,267 23,267 32,258 151,258 191,216 191,134 259,134 259,112 z M 267,112 276.2,157 267,157 267,198 284.5,198 287,210 267,210 267,235 292,235 312,333 340,333 295,112 z M 301,112 346,333 382,333 361.4,232 381,232 391,205 355.9,205 353.7,194 421,194 414,205 401,205 374,281 438,281 473,194 438,153 345.3,153 337,112 z M 13,123 13,200 93,200 139,154 47,154 58,142 142,142 142,123 z M 583,149 583,202 560,225 467,225 467,333 603,333 672,261 672,175 629,175 629,213 576,267 477,267 486,258 570,258 619,208 619,164 672,164 672,149 z "
			id="janpuyellow" />
		<path
			class="bgorange bdblack s"
			d="M 779,92 779,38 811,5 895,5 895,64 868,92 779,92 z "
			id="janpuorange2" />
		<path
			class="bgblack"
			d="M 815,17 791,41 791,85 867,85 890,61 890,17 z M 830,40 859,40 859,54 851,61 822,61 822,48 z "
			id="janpushadow2" />
		<path
			class="bgyellow bdblack s"
			d="M 813,13 789,37 789,81 865,81 888,57 888,13 z M 828,36 857,36 857,50 849,57 820,57 820,44 z "
			id="janpuyellow2" />
	</g>
	<g
		id="weeklyjump">
		<path
			class="bgblack"
			d="M 255,105.5 255,115.5 261.5,146.5 406,146.5 406,131 410,123.2 410,138.5 C 410,142.7 413.2,146.4 421,146.5 L 513.5,146.5 513.5,135.5 516,135.5 C 523.7,135.5 527,129.9 527,127.5 L 527,113.5 C 527,111.2 523.8,105.5 516,105.5 L 423,105.5 423,122 410.6,122 415.5,112.5 415.5,105.5 255,105.5 z "
			id="weeklyjumpblack" />
		<path
			class="bggreen"
			d="M 259,108 263,136 276,136 279,116 282,136 295,136 299,108 289.5,108 287.5,129 285.5,108 272.5,108 270.5,129 268.5,108 259,108 z M 300.5,108 300.5,136 319,136 319,130.6 310,130.5 310,124.5 317.5,124.5 317.5,119.5 310,119.5 310,113.5 319,113.5 319,108 300.5,108 z M 322,108 322,136 340.5,136 340.5,130.6 331.5,130.5 331.5,124.5 339,124.5 339,119.5 331.5,119.5 331.5,113.5 340.5,113.5 340.5,108 322,108 z M 343.5,108 343.5,136 353,136 353,124.6 358,136 368.5,136 361,119.5 368,108 357.5,108 353,116.3 353,108 343.5,108 z M 370,108 370,136 388.5,136 388.5,130.6 379.5,130.5 379.5,108 370,108 z M 385,108 392.5,125 392.5,136 402.5,136 402.5,125 410,108 400.5,108 397.5,117.8 394.5,108 385,108 z M 426.5,108 426.5,129.5 C 426.5,132 423.4,132.1 423.4,129.5 L 423.5,124.5 413.5,124.5 413.5,129.5 C 413.5,138.2 436.5,138.2 436.5,129.5 L 436.5,108 426.5,108 z M 438.5,108 438.5,129.5 C 438.5,138.2 461.5,138.2 461.5,129.5 L 461.5,108 451.5,108 451.5,129.5 C 451.5,132 448.4,132.1 448.4,129.5 L 448.5,108 438.5,108 z M 464,108 464,136 472.5,136 472.5,115 477.5,136 484.5,136 489.5,115 489.5,136 498,136 498,108 484,108 481,122 478,108 464,108 z M 500.5,108 500.5,136 510,136 510,125 516,125 C 519.4,125 523.5,121.8 523.5,119 L 523.5,114 C 523.5,111.4 520.1,108 516,108 L 500.5,108 z M 510,112.5 C 515,112.5 515,120.5 510,120.5 L 510,112.5 z "
			id="weeklyjumpgreen" />
	</g>
	<g
		id="shonen">
		<path
			class="bgblack"
			d="M 341.5,20 341.5,28.5 325.9,22.7 C 326.9,40.6 321.3,52 310.8,58.4 L 329,72.5 C 325.2,73.3 321.6,73 317.9,72.8 L 327.9,104.4 C 349.7,104.9 367.4,94.7 382.6,80 L 382.6,88.8 411.5,88.8 411.5,102.7 440.8,102.7 440.8,88.8 460.1,88.8 460.1,59.2 457,59.2 457,52.7 458.2,52.7 458.2,24.4 427.4,24.4 429,20 396,20 C 394.7,25.6 392,30.5 388.3,34.9 385.6,30.9 384.2,26.3 383.2,21.6 L 370.5,26.9 370.5,20 341.5,20 z "
			id="shonenblack"/>
		<path
			class="bgwhite"
			d="M 345.5,24 345.5,34.2 330,28.5 C 330.2,38.4 325,54 317.7,58.7 L 336.8,73.4 339.5,69 339.5,72.7 345,72.7 C 338.9,75.2 331.6,76.8 323.4,76.8 L 330.8,100.3 C 357.1,99.4 375.6,84.9 386.6,68.5 L 386.6,84.8 415.5,84.8 415.5,98.7 436.8,98.7 436.8,84.8 456.1,84.8 456.1,63.2 453,63.2 453,48.7 454.2,48.7 454.2,28.4 421.1,28.4 C 421.9,27.1 422.7,25.7 423.3,24 L 399,24 C 397.1,30.7 393.2,36.5 387.3,41.4 384.6,37.1 382.2,32.4 380.6,27 L 366.5,32.9 366.5,24 345.5,24 z M 392.7,57.4 395.5,61 395.5,63.2 389.8,63.2 C 390.9,61.3 391.9,59.3 392.7,57.4 z "
			id="shonenwhite" />
		<path
			class="bgblack"
			d="M 351.4,30.4 351.4,55.4 C 351.4,57.4 351,57.9 348.9,57.9 L 345.4,57.9 345.4,69.1 356.4,69.1 C 358.9,69.1 362.4,65.9 362.4,63.1 L 362.4,30.4 351.4,30.4 z M 403.5,30.4 C 401.5,36.1 396.2,42.7 390.8,46.9 L 398.1,56.4 C 399.2,55.5 400.3,54.6 401.4,53.6 L 401.4,69.6 392.5,69.6 392.5,81.2 421.4,81.2 421.4,95.1 432.7,95.1 432.7,81.2 452,81.2 452,69.6 432.7,69.6 432.7,61.3 448.9,61.3 448.9,50.9 432.7,50.9 432.7,45.1 450.1,45.1 450.1,34.8 413.6,34.8 C 414.1,33.4 414.5,31.9 414.8,30.4 L 403.5,30.4 z M 377.5,35.6 367.6,39.7 C 370.2,49.8 374,57.5 381,64.3 L 388.9,56.2 C 383.5,50.2 379.9,42.7 377.5,35.6 z M 335.5,36.9 C 335,44.3 330.1,54 325.7,59.3 L 336.3,67.5 C 341,60.2 345.8,49.3 346.3,40.9 L 335.5,36.9 z M 408.6,45.1 421.4,45.1 421.4,50.9 404,50.9 C 405.7,49.1 407.2,47.2 408.6,45.1 z M 370.4,59.8 C 361.7,74.8 346.1,81.9 331,82.8 L 335,95.2 C 357.4,91.6 369.1,85 380,67.6 L 370.4,59.8 z M 411.5,61.3 421.4,61.3 421.4,69.6 411.5,69.6 411.5,61.3 z "
			id="shonenshadow"/>
		<path
			class="bgred"
			d="M 350.5,29 350.5,54 C 350.5,56 350.1,56.5 348,56.5 L 344.5,56.5 344.5,67.7 355.5,67.7 C 358,67.7 361.5,64.5 361.5,61.7 L 361.5,29 350.5,29 z M 402.6,29 C 400.6,34.7 395.3,41.3 389.9,45.5 L 397.2,55 C 398.3,54.1 399.4,53.2 400.5,52.2 L 400.5,68.2 391.6,68.2 391.6,79.8 420.5,79.8 420.5,93.7 431.8,93.7 431.8,79.8 451.1,79.8 451.1,68.2 431.8,68.2 431.8,59.9 448,59.9 448,49.5 431.8,49.5 431.8,43.7 449.2,43.7 449.2,33.4 412.7,33.4 C 413.2,32 413.6,30.5 413.9,29 L 402.6,29 z M 376.6,34.2 366.7,38.3 C 369.3,48.4 373.1,56.1 380.1,62.9 L 388,54.8 C 382.6,48.8 379,41.3 376.6,34.2 z M 334.6,35.5 C 334.1,42.9 329.2,52.6 324.8,57.9 L 335.4,66.1 C 340.1,58.8 344.9,47.9 345.4,39.5 L 334.6,35.5 z M 407.7,43.7 420.5,43.7 420.5,49.5 403.1,49.5 C 404.8,47.7 406.3,45.8 407.7,43.7 z M 369.5,58.4 C 360.8,73.4 345.2,80.5 330.1,81.4 L 334.1,93.8 C 356.5,90.2 368.2,83.6 379.1,66.2 L 369.5,58.4 z M 410.6,59.9 420.5,59.9 420.5,68.2 410.6,68.2 410.6,59.9 z "
			id="shonenred"/>
	</g>
	<path
		class="bgred bdyellow"
		d="m 36,59.5 3,6.5 4.5,0 -3,-6.5 -4.5,0 z m 8.5,0 0,21.3 c 0,0.8 -0.5,1 -1.5,1.25 l 2,1.75 C 46.5,83.8 49,82.6 49,81 l 0,-18.5 12.5,0 0,17.5 c 0,1.3 -0.2,1.5 -0.7,1.5 l -1.3,0 0,2.5 3.5,0 c 2.1,0 3,-1.1 3,-3 l 0,-21.5 -21.5,0 z m 27.5,0 0,4.5 5,0 0,7.5 -5,0 0,4.5 5,0 0,13 4.5,0 0,-13 5,0 0,-4.5 -5,0 0,-7.5 5,0 0,-4.5 -14.5,0 z m 17.5,0 0,23 4.5,0 0,-23 -4.5,0 z m 7,0 0,24 c 0,0.7 -0.1,1 -1,1 l -4.5,0 0,4.5 6.5,0 c 2,0 3.5,-1.6 3.5,-3.5 l 0,-26 -4.5,0 z M 54,62.8 54,65 l -4,0 0,2.5 4,0 0,2.5 -4,0 0,2.5 10.5,0 0,-2.5 -4,0 0,-2.5 4,0 0,-2.5 -4,0 0,-2.2 -2.5,0 z M 36,68 l 0,4.5 2,0 0,12 -2,0 0,4.5 3.7,0 c 1.2,0 2.3,-1 2.3,-2 0,1 1,2 2.3,2 l 22.2,0 0,-4.5 -21.7,0 C 43.6,84.5 42.5,84.5 42.5,82.8 L 42.5,68 36,68 z m 14,5.5 0,9 2.5,0 0,-1.5 8,0 0,-7.5 -10.5,0 z m 2.5,2.5 5.5,0 0,2.5 -5.5,0 0,-2.5 z "
		id="shukan" />
</svg>